<?xml version="1.0" encoding="UTF-8" standalone="no"?>
<!DOCTYPE svg PUBLIC "-//W3C//DTD SVG 20010904//EN" "http://www.w3.org/TR/2001/REC-SVG-20010904/DTD/svg10.dtd">
<svg version="1.0" xmlns="http://www.w3.org/2000/svg" width="300.000000pt" height="300.000000pt" viewBox="0 0 300.000000 300.000000" preserveAspectRatio="xMidYMid meet">
<g transform="translate(0.000000,300.000000) scale(0.100000,-0.100000)" fill="#c90000" stroke="none">
<path d="M790 2800 l35 -6 -40 -7 c-22 -4 -58 -7 -79 -7 l-39 0 6 -86 c3 -59 1 -87 -7 -90 -7 -3 -11 -54 -12 -162 0 -86 2 -143 6 -127 l6 30 6 -29 c3 -17 1 -34 -6 -42 -9 -8 -12 -97 -12 -335 0 -178 3 -301 6 -274 l7 50 1 -47 c1 -26 -2 -50 -8 -53 -6 -4 -10 -166 -9 -458 1 -251 5 -437 9 -418 4 19 8 144 9 279 0 134 3 247 6 251 10 10 1 -543 -9 -559 -6 -8 -11 -82 -13 -165 -1 -89 1 -142 6 -130 5 12 7 -6 3 -47 l-5 -68 84 2 84 2 -77 3 c-73 4 -78 5 -77 26 1 14 3 16 6 6 3 -13 23 -16 121 -16 64 -1 177 -2 250 -2 86 -1 131 -5 127 -11 -8 -13 7 -13 42 2 30 12 179 16 716 18 210 1 337 5 337 11 0 6 4 8 8 5 4 -2 13 -2 19 2 6 4 -350 6 -790 4 l-802 -3 1 768 c0 422 4 782 8 798 6 22 5 26 -3 15 -9 -12 -11 -11 -11 8 0 15 4 21 12 16 7 -5 8 -3 2 7 -12 19 -12 401 0 389 9 -9 11 -178 7 -640 0 -91 2 -187 5 -215 4 -36 2 -46 -5 -35 -9 12 -11 11 -11 -8 0 -13 4 -21 8 -18 5 3 7 -130 6 -295 -1 -178 2 -301 7 -305 10 -6 11 22 9 261 -1 72 -3 382 -5 690 -2 308 -5 643 -7 743 -2 101 0 188 3 193 4 7 1028 14 1499 10 l65 -1 0 -388 c0 -214 -4 -393 -9 -401 -5 -8 -5 -12 0 -9 5 4 10 -175 11 -435 2 -652 4 -807 11 -807 4 0 7 15 6 32 0 18 2 59 6 91 3 32 3 60 -2 63 -4 3 -8 73 -8 156 0 83 2 149 5 147 2 -3 5 -71 6 -152 1 -81 4 -147 8 -147 3 0 5 -122 3 -272 -1 -149 1 -269 5 -265 4 4 9 215 11 470 2 254 4 512 5 574 1 65 -2 109 -7 105 -5 -3 -6 2 -3 12 6 16 9 458 4 633 -1 47 2 79 7 75 6 -3 6 3 2 14 -5 10 -10 39 -12 64 -3 39 -2 41 6 15 6 -21 8 1 5 73 -1 57 -5 106 -9 109 -9 9 -7 25 2 19 4 -2 9 62 11 144 l3 148 -309 2 c-169 0 -531 2 -803 3 -272 1 -479 0 -460 -3z m630 -14 c14 -2 -47 -3 -135 -3 -88 0 -142 3 -120 6 39 6 204 4 255 -3z m67 -2 c-3 -3 -12 -4 -19 -1 -8 3 -5 6 6 6 11 1 17 -2 13 -5z m146 -1 c-7 -2 -21 -2 -30 0 -10 3 -4 5 12 5 17 0 24 -2 18 -5z m340 0 c-7 -2 -19 -2 -25 0 -7 3 -2 5 12 5 14 0 19 -2 13 -5z m314 1 c-3 -3 -12 -4 -19 -1 -8 3 -5 6 6 6 11 1 17 -2 13 -5z m-1362 -14 c-4 -6 7 -8 27 -5 23 3 21 1 -10 -7 -44 -11 -68 -4 -42 12 20 13 33 13 25 0z m165 0 c0 -6 42 -11 103 -12 l102 -2 -90 -3 c-95 -4 -135 1 -135 17 0 6 5 10 10 10 6 0 10 -4 10 -10z m-252 -7 c-16 -2 -40 -2 -55 0 -16 2 -3 4 27 4 30 0 43 -2 28 -4z m537 -3 c-4 -6 10 -10 36 -10 23 0 40 -3 36 -6 -3 -4 -37 -3 -74 2 -57 6 -63 9 -38 15 44 10 47 10 40 -1z m177 -2 c-9 -9 -15 -9 -24 0 -9 9 -7 12 12 12 19 0 21 -3 12 -12z m115 5 c-20 -2 -52 -2 -70 0 -17 2 0 4 38 4 39 0 53 -2 32 -4z m662 -62 l-1 -66 -9 45 c-5 25 -7 51 -4 58 3 9 -14 12 -68 13 -213 1 -531 10 -536 14 -2 3 136 4 307 3 l312 -2 -1 -65z m-1599 46 c-13 -7 -27 -23 -31 -37 -6 -21 -7 -20 -8 13 -1 35 0 37 32 37 32 0 32 0 7 -13z m318 6 c-10 -2 -28 -2 -40 0 -13 2 -5 4 17 4 22 1 32 -1 23 -4z m849 -9 c-3 -3 -12 -4 -19 -1 -8 3 -5 6 6 6 11 1 17 -2 13 -5z m-1179 -139 c-3 -3 -9 2 -12 12 -6 14 -5 15 5 6 7 -7 10 -15 7 -18z m-15 -68 c-10 -16 -20 13 -15 41 l5 27 8 -29 c5 -16 6 -34 2 -39z m1626 -4 l-2 -68 -7 60 c-6 56 -5 75 6 75 2 0 3 -30 3 -67z m-1612 -40 c-3 -10 -5 -4 -5 12 0 17 2 24 5 18 2 -7 2 -21 0 -30z m-17 -58 c0 -5 -5 -3 -10 5 -5 8 -10 20 -10 25 0 6 5 3 10 -5 5 -8 10 -19 10 -25z m1627 -27 c-2 -13 -4 -5 -4 17 -1 22 1 32 4 23 2 -10 2 -28 0 -40z m-1636 -31 c-10 -9 -11 -8 -5 6 3 10 9 15 12 12 3 -3 0 -11 -7 -18z m1626 -224 c-2 -21 -4 -4 -4 37 0 41 2 58 4 38 2 -21 2 -55 0 -75z m3 -200 c-9 -15 -10 -12 -6 16 3 18 7 48 8 65 1 19 3 13 5 -16 2 -26 -1 -56 -7 -65z m-1653 35 c-2 -13 -4 -3 -4 22 0 25 2 35 4 23 2 -13 2 -33 0 -45z m1657 -105 c4 -27 2 -43 -4 -43 -5 0 -10 21 -10 47 0 55 5 54 14 -4z m-1654 -44 c-7 -31 -8 -29 -8 21 -1 39 2 49 8 34 4 -11 5 -36 0 -55z m1647 -56 c-3 -10 -5 -4 -5 12 0 17 2 24 5 18 2 -7 2 -21 0 -30z m13 -145 c0 -79 -3 -108 -10 -98 -12 17 -10 210 2 210 4 0 8 -51 8 -112z m-1663 -105 c-2 -16 -4 -5 -4 22 0 28 2 40 4 28 2 -13 2 -35 0 -50z m11 -144 c-3 -43 -18 -47 -16 -4 1 19 5 35 10 35 4 0 7 -14 6 -31z m1639 -31 c-3 -7 -5 -2 -5 12 0 14 2 19 5 13 2 -7 2 -19 0 -25z m-1637 -55 c-11 -17 -11 -17 -6 0 3 10 7 26 7 35 1 15 2 15 6 0 2 -10 -1 -25 -7 -35z m1668 -8 c0 -16 -2 -15 -8 5 -11 34 -11 60 0 35 5 -11 8 -29 8 -40z m-1671 -807 c-2 -24 -4 -5 -4 42 0 47 2 66 4 43 2 -24 2 -62 0 -85z m540 -164 c-3 -3 -12 -4 -19 -1 -8 3 -5 6 6 6 11 1 17 -2 13 -5z"/>
<path d="M650 2705 c0 -52 3 -95 8 -95 4 0 7 39 7 87 l0 88 45 6 45 6 -52 1 -53 2 0 -95z"/>
<path d="M1605 2547 c-16 -7 -32 -14 -35 -17 -3 -3 -11 -5 -17 -6 -30 -2 -34 -5 -28 -14 3 -5 0 -7 -8 -4 -7 2 -24 -6 -38 -18 -13 -13 -41 -36 -61 -51 -21 -16 -38 -32 -38 -37 0 -5 -12 -22 -26 -37 -25 -27 -68 -90 -112 -164 -12 -20 -22 -45 -22 -56 0 -12 -7 -26 -15 -33 -8 -7 -12 -16 -9 -21 3 -5 1 -9 -3 -9 -11 0 -43 -91 -43 -124 0 -14 -4 -26 -8 -26 -5 0 -14 -23 -21 -50 -7 -28 -20 -58 -29 -67 -16 -16 -16 -16 0 -10 10 3 20 1 24 -5 5 -8 -9 -9 -47 -5 -30 3 -45 2 -34 -2 13 -5 -6 -10 -58 -15 -85 -8 -131 -21 -123 -35 3 -5 25 -5 48 -1 38 7 116 15 258 26 25 1 95 6 155 9 61 3 128 8 149 12 30 5 37 3 31 -6 -4 -7 -16 -11 -26 -8 -11 3 -19 1 -19 -4 0 -4 -30 -6 -67 -3 -52 4 -65 3 -53 -6 12 -9 11 -10 -7 -5 -12 3 -31 1 -42 -4 -13 -8 -20 -8 -23 0 -4 11 -38 2 -38 -11 0 -9 135 -3 160 7 8 3 34 5 58 4 24 -2 50 3 57 9 8 7 21 10 29 7 8 -3 17 -3 20 0 6 6 27 8 275 18 126 5 185 4 190 -3 3 -6 18 -12 31 -14 14 -2 35 -10 48 -16 12 -7 27 -10 33 -6 6 3 19 -2 30 -12 12 -11 19 -13 19 -5 0 21 -21 52 -31 46 -5 -4 -8 -1 -7 6 2 6 -3 14 -11 17 -9 3 -11 0 -6 -8 5 -9 4 -11 -4 -6 -6 4 -9 11 -6 16 5 8 -20 27 -35 28 -3 1 -12 3 -20 5 -37 12 -203 24 -285 22 -177 -6 -395 -19 -515 -31 l-55 -5 -1 38 c0 21 5 44 13 51 7 7 13 21 14 30 0 9 2 24 4 32 5 25 72 177 90 203 8 13 13 33 9 43 -4 14 -3 16 4 5 7 -10 16 -3 36 31 14 25 26 47 26 50 0 8 149 153 158 153 4 1 22 9 41 19 19 10 46 19 60 21 14 1 47 6 74 10 37 6 47 5 47 -6 0 -12 2 -12 9 0 6 9 11 10 15 2 4 -6 19 -11 33 -11 101 0 233 -65 275 -136 11 -19 23 -33 25 -30 10 9 -28 66 -64 95 -21 17 -33 31 -27 31 18 0 103 -96 110 -124 3 -14 9 -26 13 -26 3 0 7 -17 9 -37 1 -21 7 -42 13 -48 8 -7 9 -1 4 23 -4 19 -8 43 -10 55 -4 40 -33 95 -55 107 -12 6 -19 14 -16 17 5 6 -103 103 -113 101 -3 -1 -19 4 -35 11 -16 6 -43 14 -60 17 -56 9 -226 11 -226 3 0 -5 -5 -9 -11 -9 -5 0 -7 5 -4 10 8 13 -11 11 -50 -3z m105 -27 c-8 -5 -19 -10 -25 -10 -5 0 -3 5 5 10 8 5 20 10 25 10 6 0 3 -5 -5 -10z m120 1 c0 -8 -80 -4 -89 5 -2 2 17 4 42 4 26 0 47 -4 47 -9z m-203 -7 c-3 -3 -12 -4 -19 -1 -8 3 -5 6 6 6 11 1 17 -2 13 -5z m-37 -8 c0 -2 -7 -7 -16 -10 -8 -3 -12 -2 -9 4 6 10 25 14 25 6z m-56 -28 c-5 -7 -20 -23 -35 -35 -64 -55 -130 -127 -125 -139 3 -8 0 -11 -9 -7 -16 5 -14 11 18 55 11 15 25 24 31 21 6 -4 5 1 -3 11 -8 9 -10 16 -5 14 12 -3 62 29 98 64 30 30 42 36 30 16z m-204 -218 c0 -5 -2 -10 -4 -10 -3 0 -8 5 -11 10 -3 6 -1 10 4 10 6 0 11 -4 11 -10z m-57 -55 c-15 -30 -28 -53 -30 -51 -7 7 43 106 53 106 2 0 -8 -25 -23 -55z m37 5 c0 -5 -5 -10 -11 -10 -5 0 -7 5 -4 10 3 6 8 10 11 10 2 0 4 -4 4 -10z m-34 -68 c-18 -16 -18 -16 -6 6 6 13 14 21 18 18 3 -4 -2 -14 -12 -24z m-6 -26 c0 -3 -4 -8 -10 -11 -5 -3 -10 -1 -10 4 0 6 5 11 10 11 6 0 10 -2 10 -4z m-25 -25 c3 -5 1 -12 -4 -15 -5 -3 -11 1 -15 9 -6 16 9 21 19 6z m-54 -58 c-8 -15 -10 -15 -11 -2 0 17 10 32 18 25 2 -3 -1 -13 -7 -23z m31 5 c-7 -7 -12 -8 -12 -2 0 14 12 26 19 19 2 -3 -1 -11 -7 -17z m-51 -55 c-12 -20 -14 -14 -5 12 4 9 9 14 11 11 3 -2 0 -13 -6 -23z m12 -43 c-3 -12 -8 -19 -11 -16 -5 6 5 36 12 36 2 0 2 -9 -1 -20z m-13 -41 c0 -5 -4 -9 -10 -9 -5 0 -10 7 -10 16 0 8 5 12 10 9 6 -3 10 -10 10 -16z m0 -82 c-19 -28 -21 -29 -15 -7 4 14 9 36 12 49 5 20 7 21 15 7 7 -12 3 -26 -12 -49z m390 19 c0 -3 -4 -8 -10 -11 -5 -3 -10 -1 -10 4 0 6 5 11 10 11 6 0 10 -2 10 -4z m128 -3 c-10 -2 -26 -2 -35 0 -10 3 -2 5 17 5 19 0 27 -2 18 -5z m147 -14 c6 -1 18 2 29 6 14 6 17 4 14 -6 -4 -13 -34 -15 -123 -9 -39 2 -39 3 -10 9 17 4 41 6 55 4 14 -2 30 -4 35 -4z m-467 -6 c-10 -2 -28 -2 -40 0 -13 2 -5 4 17 4 22 1 32 -1 23 -4z m337 -21 c-6 -7 -34 11 -29 19 3 5 11 3 19 -4 7 -6 12 -13 10 -15z m218 21 c-7 -2 -19 -2 -25 0 -7 3 -2 5 12 5 14 0 19 -2 13 -5z m92 -11 c-3 -3 -11 0 -18 7 -9 10 -8 11 6 5 10 -3 15 -9 12 -12z m-787 1 c-10 -2 -26 -2 -35 0 -10 3 -2 5 17 5 19 0 27 -2 18 -5z m55 0 c-7 -2 -19 -2 -25 0 -7 3 -2 5 12 5 14 0 19 -2 13 -5z m252 -3 c3 -6 -1 -7 -9 -4 -18 7 -21 14 -7 14 6 0 13 -4 16 -10z m125 0 c0 -5 -2 -10 -4 -10 -3 0 -8 5 -11 10 -3 6 -1 10 4 10 6 0 11 -4 11 -10z m420 -6 c0 -2 -9 -4 -20 -4 -11 0 -20 4 -20 9 0 5 9 7 20 4 11 -3 20 -7 20 -9z"/>
<path d="M2120 1732 c0 -5 11 -19 25 -32 30 -28 34 -13 5 18 -22 23 -30 27 -30 14z"/>
<path d="M1057 1638 c-29 -159 -46 -288 -51 -382 -4 -69 -3 -80 4 -46 6 33 7 17 4 -60 -16 -399 -17 -469 -2 -483 12 -12 14 8 16 149 2 90 7 207 11 261 5 54 7 110 6 126 -2 15 1 29 6 33 5 3 9 26 9 51 0 62 20 173 31 173 5 0 9 5 9 11 0 5 -5 7 -11 3 -7 -4 -9 0 -5 12 3 11 8 39 10 64 5 46 30 153 41 170 3 6 -3 10 -14 10 -10 0 -22 -6 -24 -12 -4 -10 -6 -10 -6 0 -1 6 -5 12 -9 12 -4 0 -15 -42 -25 -92z m27 17 c-4 -8 -8 -15 -10 -15 -2 0 -4 7 -4 15 0 8 4 15 10 15 5 0 7 -7 4 -15z m-12 -50 c-2 -14 -6 -25 -8 -25 -2 0 -4 11 -4 25 0 14 4 25 9 25 4 0 6 -11 3 -25z m-21 -162 c-15 -91 -22 -125 -27 -121 -2 2 3 46 11 98 8 52 15 99 15 104 0 5 3 6 6 3 4 -4 1 -41 -5 -84z m-24 -170 c-3 -10 -5 -4 -5 12 0 17 2 24 5 18 2 -7 2 -21 0 -30z"/>
<path d="M1141 1704 c-6 -14 -11 -33 -11 -42 -1 -9 -7 -34 -14 -55 -8 -20 -10 -40 -5 -42 4 -3 4 -18 -2 -32 -6 -15 -8 -38 -4 -50 3 -13 1 -31 -4 -41 -13 -25 -17 -71 -6 -72 6 0 11 10 12 22 9 75 24 167 33 192 5 16 10 44 10 63 0 19 5 43 10 53 6 10 6 21 1 24 -4 3 -13 -6 -20 -20z m-14 -126 c-3 -8 -6 -5 -6 6 -1 11 2 17 5 13 3 -3 4 -12 1 -19z"/>
<path d="M2177 1724 c-8 -8 33 -84 44 -84 5 0 0 18 -10 40 -21 47 -25 52 -34 44z"/>
<path d="M1839 1599 c-9 -6 -1 -9 23 -9 20 0 39 -4 42 -8 3 -5 -25 -7 -62 -5 -42 3 -63 1 -57 -5 15 -14 75 -23 75 -11 0 6 12 1 26 -10 15 -11 30 -18 35 -16 17 11 -15 -60 -33 -73 -10 -7 -15 -18 -12 -24 4 -6 3 -8 -3 -5 -5 4 -25 -5 -44 -19 -19 -15 -49 -32 -66 -40 -18 -8 -32 -18 -31 -22 0 -4 -1 -14 -5 -22 -14 -39 -13 -57 4 -68 24 -15 50 -16 29 -1 -13 9 -13 10 0 6 8 -2 15 -9 15 -15 0 -6 6 -17 13 -23 6 -7 12 -10 12 -6 0 4 8 -1 19 -10 10 -10 35 -33 55 -51 48 -44 46 -59 -9 -73 -25 -6 -44 -14 -41 -16 7 -8 70 8 90 22 18 14 18 16 2 42 l-17 28 20 -24 c27 -30 26 -37 -6 -58 -17 -11 -46 -17 -84 -18 -31 0 -52 -3 -46 -7 7 -4 -8 -8 -33 -8 -75 -2 -111 -7 -123 -19 -8 -8 18 -10 98 -6 135 6 159 11 212 41 40 23 42 26 32 52 -6 15 -21 40 -33 57 -33 45 -38 55 -26 55 6 0 14 -8 17 -17 4 -10 16 -31 28 -48 34 -46 39 -82 15 -95 -11 -6 -20 -17 -20 -25 0 -20 7 -19 31 3 23 22 28 77 9 112 -19 36 -103 111 -117 105 -7 -2 -13 0 -13 5 0 15 -62 40 -85 34 -13 -3 -26 0 -30 6 -4 7 -1 11 6 9 54 -7 78 3 137 59 33 31 64 68 67 81 5 16 4 21 -4 17 -6 -4 -11 0 -11 8 0 21 10 20 26 -1 14 -19 14 -20 18 32 1 24 -28 71 -46 73 -7 0 -29 5 -49 10 -21 5 -43 6 -50 1z m121 -74 c0 -8 -2 -15 -4 -15 -2 0 -6 7 -10 15 -3 8 -1 15 4 15 6 0 10 -7 10 -15z m-80 -125 c-15 -16 -33 -30 -39 -30 -6 0 -11 -4 -11 -8 0 -5 -11 -14 -25 -20 -39 -18 -29 2 13 26 21 11 46 30 57 42 10 11 21 20 26 20 4 0 -6 -13 -21 -30z m-37 -145 c-3 -9 -8 -14 -10 -11 -3 3 -2 9 2 15 9 16 15 13 8 -4z m47 -22 c0 -13 -3 -13 -15 -3 -8 7 -12 16 -9 21 8 13 24 1 24 -18z m-9 -50 c13 -16 12 -17 -3 -4 -17 13 -22 21 -14 21 2 0 10 -8 17 -17z"/>
<path d="M996 1135 c-9 -26 -7 -32 5 -12 6 10 9 21 6 23 -2 3 -7 -2 -11 -11z"/>
<path d="M992 1025 c0 -16 2 -22 5 -12 2 9 2 23 0 30 -3 6 -5 -1 -5 -18z"/>
<path d="M1476 1034 c18 -14 17 -15 -18 -9 -21 3 -39 1 -43 -5 -6 -10 2 -12 65 -15 16 -1 36 -8 44 -14 8 -7 20 -10 25 -7 22 14 -9 -56 -34 -77 -15 -12 -35 -29 -44 -37 -23 -20 -72 -50 -93 -57 -15 -5 -30 -38 -32 -73 -1 -18 30 -43 44 -35 5 3 20 -1 32 -9 12 -9 17 -16 11 -16 -7 0 -15 5 -18 10 -3 6 -11 10 -16 10 -6 0 -7 -5 -4 -11 8 -11 55 -33 67 -31 5 1 7 -2 5 -7 -1 -5 15 -25 36 -45 21 -20 37 -41 35 -48 -2 -6 -20 -17 -39 -24 -19 -7 -28 -13 -20 -13 8 -1 11 -4 7 -8 -7 -8 -33 -11 -144 -17 -74 -5 -103 -13 -84 -25 10 -6 181 3 244 13 42 6 98 45 98 67 0 23 -61 118 -76 118 -13 1 -41 31 -29 31 13 0 65 -41 65 -51 0 -16 27 -39 35 -31 4 4 5 3 4 -3 -2 -5 3 -27 10 -48 12 -35 11 -39 -11 -56 -12 -11 -20 -22 -16 -26 14 -14 48 30 48 62 0 35 -28 103 -42 103 -5 0 -21 14 -35 30 -13 17 -33 30 -44 30 -10 0 -19 4 -19 8 0 5 -15 14 -34 22 l-35 13 45 28 c24 16 44 33 44 39 0 16 -15 12 -35 -10 -10 -11 -20 -18 -23 -15 -3 2 -13 0 -23 -6 -34 -18 -20 0 25 30 38 26 46 28 56 16 10 -12 18 -8 47 28 19 23 39 44 44 45 13 5 11 92 -2 92 -5 0 -7 4 -4 10 8 13 -60 40 -103 40 -34 0 -35 -1 -16 -16z m57 -11 c-7 -2 -19 -2 -25 0 -7 3 -2 5 12 5 14 0 19 -2 13 -5z m61 -91 c3 -5 -1 -9 -9 -9 -8 0 -15 4 -15 9 0 4 4 8 9 8 6 0 12 -4 15 -8z m-64 -67 c-7 -9 -15 -13 -17 -11 -7 7 7 26 19 26 6 0 6 -6 -2 -15z m-130 -115 c8 -5 11 -10 5 -10 -5 0 -17 5 -25 10 -8 5 -10 10 -5 10 6 0 17 -5 25 -10z m64 -49 c-2 -3 -12 3 -22 13 -16 17 -16 18 5 5 12 -7 20 -15 17 -18z m77 -103 l22 -33 -27 27 c-24 25 -32 38 -22 38 3 0 15 -15 27 -32z m29 -46 c0 -10 -44 -32 -63 -32 -9 0 21 20 61 39 1 0 2 -3 2 -7z"/>
<path d="M2055 1042 c6 -6 24 -12 40 -15 17 -2 -1 -5 -39 -6 -77 -1 -84 -9 -12 -15 26 -3 53 -10 61 -16 8 -6 18 -9 23 -6 6 3 6 -10 0 -34 -6 -22 -14 -40 -19 -40 -4 0 -22 -13 -40 -30 -18 -16 -52 -39 -75 -52 -43 -22 -55 -41 -59 -88 -3 -28 12 -42 36 -35 8 3 24 -2 35 -11 18 -14 18 -15 -4 -4 -13 7 -26 9 -29 6 -3 -3 7 -11 23 -18 29 -13 139 -117 131 -124 -2 -2 -21 -11 -43 -19 l-39 -15 35 4 35 5 -32 -14 c-17 -8 -78 -17 -135 -21 -56 -3 -105 -8 -107 -10 -15 -14 24 -18 116 -12 142 10 154 12 191 34 47 27 41 75 -15 132 -7 7 -13 18 -13 23 0 5 -6 9 -14 9 -7 0 -19 7 -26 15 -10 12 -10 15 4 15 9 0 16 -4 16 -9 0 -5 9 -13 20 -16 11 -3 20 -11 20 -16 0 -6 11 -25 24 -42 34 -47 39 -86 12 -108 -26 -21 -16 -35 13 -17 31 19 35 60 12 113 -11 25 -25 45 -31 45 -6 0 -23 14 -37 30 -13 17 -33 30 -44 30 -10 0 -19 4 -19 8 0 5 -15 15 -32 24 l-33 16 25 10 c35 15 127 103 135 130 3 12 10 20 15 17 10 -6 20 19 20 48 0 26 -27 61 -55 72 -35 13 -101 18 -90 7z m113 -77 c-3 -3 -9 2 -12 12 -6 14 -5 15 5 6 7 -7 10 -15 7 -18z m-88 -134 c-23 -22 -45 -40 -49 -39 -14 3 -41 -15 -35 -23 3 -5 0 -9 -6 -9 -6 0 -8 -4 -5 -10 3 -6 -1 -7 -10 -4 -13 5 -9 13 21 40 20 19 40 34 44 34 4 0 22 13 41 29 49 43 48 29 -1 -18z m-30 -136 c0 -8 -2 -15 -4 -15 -2 0 -6 7 -10 15 -3 8 -1 15 4 15 6 0 10 -7 10 -15z m52 -52 c-10 -4 -10 -8 0 -21 12 -15 11 -16 -4 -3 -19 14 -15 32 5 30 8 0 8 -2 -1 -6z m38 -64 c0 -6 -4 -7 -10 -4 -5 3 -10 11 -10 16 0 6 5 7 10 4 6 -3 10 -11 10 -16z m5 -38 c-3 -6 -11 -11 -16 -11 -5 0 -4 6 3 14 14 16 24 13 13 -3z"/>
<path d="M1445 520 c3 -5 8 -10 11 -10 2 0 4 5 4 10 0 6 -5 10 -11 10 -5 0 -7 -4 -4 -10z"/>
<path d="M1408 513 c7 -3 16 -2 19 1 4 3 -2 6 -13 5 -11 0 -14 -3 -6 -6z"/>
<path d="M1988 513 c6 -2 18 -2 25 0 6 3 1 5 -13 5 -14 0 -19 -2 -12 -5z"/>
<path d="M1295 310 c-3 -5 -1 -10 4 -10 6 0 11 5 11 10 0 6 -2 10 -4 10 -3 0 -8 -4 -11 -10z"/>
<path d="M943 303 c9 -2 23 -2 30 0 6 3 -1 5 -18 5 -16 0 -22 -2 -12 -5z"/>
<path d="M1248 303 c7 -3 16 -2 19 1 4 3 -2 6 -13 5 -11 0 -14 -3 -6 -6z"/>
</g>
</svg>